<svg width="13" height="13" viewBox="0 0 13 13" fill="none" xmlns="http://www.w3.org/2000/svg">
<g clip-path="url(#clip0_9_12276)">
<path d="M12.0332 3.44287L11.6348 3.05615C11.5723 2.99365 11.502 2.94678 11.4238 2.91553C11.3457 2.88428 11.2598 2.86865 11.166 2.86865C11.0801 2.86865 10.998 2.88428 10.9199 2.91553C10.8418 2.94678 10.7715 2.99365 10.709 3.05615L5.18945 8.57568L1.73242 5.13037C1.66992 5.06787 1.59961 5.01904 1.52148 4.98389C1.44336 4.94873 1.35742 4.93115 1.26367 4.93115C1.17773 4.93115 1.0957 4.94873 1.01758 4.98389C0.939453 5.01904 0.869141 5.06787 0.806641 5.13037L0.408203 5.51709C0.345703 5.57959 0.298828 5.65186 0.267578 5.73389C0.236328 5.81592 0.220703 5.8999 0.220703 5.98584C0.220703 6.07178 0.236328 6.15576 0.267578 6.23779C0.298828 6.31982 0.345703 6.38818 0.408203 6.44287L4.31055 10.3452C4.31055 10.3452 4.3125 10.3472 4.31641 10.3511C4.32031 10.355 4.32227 10.3608 4.32227 10.3687L4.7207 10.7554C4.7832 10.8179 4.85352 10.8628 4.93164 10.8901C5.00977 10.9175 5.0957 10.9312 5.18945 10.9312C5.27539 10.9312 5.35742 10.9175 5.43555 10.8901C5.51367 10.8628 5.58398 10.8179 5.64648 10.7554L6.04492 10.3569C6.04492 10.3569 6.04688 10.355 6.05078 10.3511C6.05469 10.3472 6.05664 10.3452 6.05664 10.3452L12.0332 4.38037C12.1582 4.24756 12.2207 4.09131 12.2207 3.91162C12.2207 3.73193 12.1582 3.57568 12.0332 3.44287Z" fill="#F0F0F0"/>
</g>
<defs>
<clipPath id="clip0_9_12276">
<rect width="12" height="12" fill="white" transform="matrix(1 0 0 -1 0.220703 12.8999)"/>
</clipPath>
</defs>
</svg>
