<svg width="11" height="12" viewBox="0 0 11 12" fill="none" xmlns="http://www.w3.org/2000/svg">
<g clip-path="url(#clip0_9_2155)">
<path d="M5.5 0.437988L0 5.21826L0.558594 5.86279L1.07422 5.41162V9.6333C1.07422 9.99137 1.20133 10.2957 1.45557 10.5464C1.7098 10.797 2.01237 10.9224 2.36328 10.9224H4.76953V6.71143H6.27344V10.9224H8.63672C8.98763 10.9224 9.2902 10.797 9.54443 10.5464C9.79867 10.2957 9.92578 9.99137 9.92578 9.6333V5.41162L10.4414 5.86279L11 5.21826L5.5 0.437988ZM9.06641 9.6333C9.06641 9.75505 9.02344 9.8571 8.9375 9.93945C8.85156 10.0218 8.7513 10.063 8.63672 10.063H7.13281V5.85205H3.91016V10.063H2.36328C2.2487 10.063 2.14844 10.0218 2.0625 9.93945C1.97656 9.8571 1.93359 9.75505 1.93359 9.6333V4.67041L5.5 1.57666L9.06641 4.67041V9.6333Z" fill="#999999"/>
</g>
<defs>
<clipPath id="clip0_9_2155">
<rect width="11" height="11" fill="white" transform="matrix(1 0 0 -1 0 11.1802)"/>
</clipPath>
</defs>
</svg>
