<svg width="15" height="15" viewBox="0 0 15 15" fill="none" xmlns="http://www.w3.org/2000/svg">
<g clip-path="url(#clip0_9_269)">
<path d="M11.0885 0.832031C10.8971 0.86849 10.7558 0.952799 10.6646 1.08496C10.5735 1.21712 10.5325 1.39714 10.5416 1.625C10.5416 1.67969 10.5439 1.76628 10.5484 1.88477C10.553 2.00326 10.5553 2.11719 10.5553 2.22656C10.5735 2.5 10.5735 2.67318 10.5553 2.74609C10.537 2.81901 10.496 2.85547 10.4322 2.85547C10.3867 2.85547 10.3342 2.83724 10.275 2.80078C10.2158 2.76432 10.0722 2.66862 9.84434 2.51367C9.72585 2.42253 9.61191 2.34277 9.50254 2.27441C9.39316 2.20605 9.32025 2.16276 9.28379 2.14453C9.2291 2.11719 9.18581 2.09896 9.15391 2.08984C9.12201 2.08073 9.05592 2.07617 8.95566 2.07617C8.87363 2.07617 8.81439 2.07845 8.77793 2.08301C8.74147 2.08756 8.70501 2.09896 8.66855 2.11719C8.49538 2.21745 8.36777 2.35872 8.28574 2.54102C8.20371 2.72331 8.19004 2.90104 8.24473 3.07422C8.27207 3.14714 8.31081 3.22005 8.36094 3.29297C8.41107 3.36589 8.46348 3.42057 8.51816 3.45703C8.54551 3.47526 8.61159 3.51628 8.71641 3.58008C8.82122 3.64388 8.93743 3.70768 9.06504 3.77148C9.18353 3.83529 9.2929 3.89681 9.39316 3.95605C9.49342 4.0153 9.55723 4.05404 9.58457 4.07227C9.64837 4.11784 9.68255 4.17936 9.68711 4.25684C9.69167 4.33431 9.66204 4.40495 9.59824 4.46875C9.58001 4.48698 9.52533 4.52344 9.43418 4.57812C9.34303 4.63281 9.24277 4.69206 9.1334 4.75586C8.89642 4.87435 8.73464 4.96549 8.64805 5.0293C8.56146 5.0931 8.48626 5.16146 8.42246 5.23438C8.35866 5.32552 8.31536 5.40299 8.29258 5.4668C8.26979 5.5306 8.2584 5.60807 8.2584 5.69922C8.26751 5.77214 8.27663 5.82682 8.28574 5.86328C8.29486 5.89974 8.31764 5.94531 8.3541 6C8.39967 6.08203 8.45208 6.15723 8.51133 6.22559C8.57057 6.29395 8.6321 6.34635 8.6959 6.38281C8.72324 6.39193 8.75514 6.40104 8.7916 6.41016C8.82806 6.41927 8.87819 6.42383 8.94199 6.42383C9.07871 6.43294 9.1972 6.41927 9.29746 6.38281C9.39772 6.34635 9.53444 6.26432 9.70762 6.13672C9.75319 6.10026 9.81699 6.05241 9.89902 5.99316C9.98105 5.93392 10.0494 5.88607 10.1041 5.84961C10.2408 5.74935 10.3411 5.68783 10.4049 5.66504C10.4687 5.64225 10.5097 5.65365 10.5279 5.69922C10.5462 5.74479 10.5576 5.80859 10.5621 5.89062C10.5667 5.97266 10.5644 6.0957 10.5553 6.25977C10.5462 6.52409 10.5416 6.71549 10.5416 6.83398C10.5416 6.95247 10.5507 7.04818 10.5689 7.12109C10.6054 7.2487 10.6624 7.35807 10.7398 7.44922C10.8173 7.54036 10.9062 7.60417 11.0064 7.64062C11.0794 7.66797 11.1728 7.68164 11.2867 7.68164C11.4007 7.68164 11.4895 7.67253 11.5533 7.6543C11.6536 7.61784 11.7424 7.56087 11.8199 7.4834C11.8974 7.40592 11.9589 7.3125 12.0045 7.20312C12.0318 7.13021 12.0478 7.02767 12.0523 6.89551C12.0569 6.76335 12.0546 6.49219 12.0455 6.08203C12.0364 5.92708 12.0341 5.81771 12.0387 5.75391C12.0432 5.6901 12.0501 5.65365 12.0592 5.64453C12.0774 5.6263 12.1275 5.63997 12.2096 5.68555C12.2916 5.73112 12.442 5.83138 12.6607 5.98633C12.9068 6.17773 13.0777 6.29622 13.1734 6.3418C13.2691 6.38737 13.3854 6.41471 13.5221 6.42383C13.6132 6.43294 13.6747 6.43522 13.7066 6.43066C13.7385 6.42611 13.7818 6.41016 13.8365 6.38281C13.9003 6.34635 13.955 6.3099 14.0006 6.27344C14.0462 6.23698 14.0917 6.18229 14.1373 6.10938C14.192 6.02734 14.2307 5.95671 14.2535 5.89746C14.2763 5.83822 14.2923 5.77214 14.3014 5.69922C14.3014 5.6263 14.2991 5.57617 14.2945 5.54883C14.29 5.52148 14.2695 5.47135 14.233 5.39844C14.1783 5.29818 14.1077 5.20703 14.0211 5.125C13.9345 5.04297 13.8183 4.96094 13.6725 4.87891C13.636 4.86068 13.5813 4.83105 13.5084 4.79004C13.4355 4.74902 13.3671 4.71484 13.3033 4.6875C13.1575 4.60547 13.0595 4.5485 13.0094 4.5166C12.9592 4.4847 12.916 4.44596 12.8795 4.40039C12.7975 4.30013 12.8089 4.20671 12.9137 4.12012C13.0185 4.03353 13.3215 3.85807 13.8229 3.59375C14.0325 3.48438 14.1806 3.34538 14.2672 3.17676C14.3538 3.00814 14.3652 2.83268 14.3014 2.65039C14.2831 2.56836 14.2581 2.5 14.2262 2.44531C14.1943 2.39062 14.1464 2.33138 14.0826 2.26758C14.0097 2.19466 13.9345 2.14453 13.857 2.11719C13.7796 2.08984 13.6907 2.07617 13.5904 2.07617C13.4811 2.07617 13.3785 2.09896 13.2828 2.14453C13.1871 2.1901 13.0208 2.29492 12.7838 2.45898C12.5742 2.61393 12.4306 2.71647 12.3531 2.7666C12.2757 2.81673 12.2187 2.84635 12.1822 2.85547C12.1093 2.8737 12.0637 2.83724 12.0455 2.74609C12.0273 2.65495 12.0273 2.45443 12.0455 2.14453C12.0546 1.86198 12.0569 1.66374 12.0523 1.5498C12.0478 1.43587 12.0318 1.34701 12.0045 1.2832C11.9407 1.13737 11.8541 1.02572 11.7447 0.948242C11.6354 0.870768 11.4986 0.827474 11.3346 0.818359C11.289 0.818359 11.2411 0.818359 11.191 0.818359C11.1409 0.818359 11.1067 0.822917 11.0885 0.832031Z" fill="#31CAAE"/>
</g>
<defs>
<clipPath id="clip0_9_269">
<rect width="14" height="14" fill="white" transform="matrix(1 0 0 -1 0.779785 14.75)"/>
</clipPath>
</defs>
</svg>
