<svg width="11" height="12" viewBox="0 0 11 12" fill="none" xmlns="http://www.w3.org/2000/svg">
<path d="M7.36914 5.21826C7.35482 5.20394 7.3387 5.18783 7.3208 5.16992C7.3029 5.15202 7.2832 5.13949 7.26172 5.13232L4.61914 2.48975C4.49023 2.36084 4.33447 2.29639 4.15186 2.29639C3.96924 2.29639 3.81348 2.36084 3.68457 2.48975C3.55566 2.61865 3.49121 2.77441 3.49121 2.95703C3.49121 3.13965 3.55566 3.29541 3.68457 3.42432L5.96191 5.69092L3.67383 7.979C3.54492 8.10791 3.48047 8.26367 3.48047 8.44629C3.48047 8.62891 3.54492 8.78467 3.67383 8.91357C3.73828 8.97803 3.81169 9.02637 3.89404 9.05859C3.9764 9.09082 4.05697 9.10693 4.13574 9.10693C4.22168 9.10693 4.30583 9.09082 4.38818 9.05859C4.47054 9.02637 4.54395 8.97803 4.6084 8.91357L7.26172 6.26025C7.2832 6.24593 7.3029 6.23161 7.3208 6.21729C7.3387 6.20296 7.35482 6.18864 7.36914 6.17432C7.43359 6.10986 7.48193 6.03646 7.51416 5.9541C7.54639 5.87174 7.5625 5.78402 7.5625 5.69092C7.5625 5.60498 7.54639 5.52083 7.51416 5.43848C7.48193 5.35612 7.43359 5.28271 7.36914 5.21826Z" fill="#CCCCCC"/>
</svg>
