<svg width="27" height="28" viewBox="0 0 27 28" fill="none" xmlns="http://www.w3.org/2000/svg">
<g clip-path="url(#clip0_131_1367)">
<path d="M13.499 15.5674C14.5186 15.5674 15.4678 15.374 16.3467 14.9873C17.2432 14.583 18.0254 14.0513 18.6934 13.3921C19.3613 12.7329 19.8887 11.9551 20.2754 11.0586C20.6621 10.1621 20.8555 9.2041 20.8555 8.18457C20.8555 7.18262 20.6621 6.2334 20.2754 5.33691C19.8887 4.44043 19.3613 3.6582 18.6934 2.99023C18.0254 2.32227 17.2432 1.79492 16.3467 1.4082C15.4678 1.02148 14.5186 0.828125 13.499 0.828125C12.4795 0.828125 11.5303 1.02148 10.6514 1.4082C9.75488 1.79492 8.97266 2.32227 8.30469 2.99023C7.63672 3.6582 7.10938 4.44043 6.72266 5.33691C6.33594 6.2334 6.14258 7.18262 6.14258 8.18457C6.14258 9.2041 6.33594 10.1621 6.72266 11.0586C7.10938 11.9551 7.63672 12.7329 8.30469 13.3921C8.97266 14.0513 9.75488 14.583 10.6514 14.9873C11.5303 15.374 12.4795 15.5674 13.499 15.5674ZM13.499 2.06738C14.3428 2.06738 15.1338 2.22559 15.8721 2.54199C16.6279 2.8584 17.2827 3.29785 17.8364 3.86035C18.3901 4.42285 18.8252 5.07324 19.1416 5.81152C19.4756 6.5498 19.6426 7.34082 19.6426 8.18457C19.6426 9.02832 19.4756 9.82813 19.1416 10.584C18.8252 11.3223 18.3901 11.9683 17.8364 12.522C17.2827 13.0757 16.6279 13.5195 15.8721 13.8535C15.1338 14.1699 14.3428 14.3281 13.499 14.3281C12.6553 14.3281 11.8643 14.1699 11.126 13.8535C10.3701 13.5195 9.71533 13.0757 9.16162 12.522C8.60791 11.9683 8.17285 11.3223 7.85645 10.584C7.52246 9.82813 7.35547 9.02832 7.35547 8.18457C7.35547 7.34082 7.52246 6.5498 7.85645 5.81152C8.17285 5.07324 8.60791 4.42285 9.16162 3.86035C9.71533 3.29785 10.3701 2.8584 11.126 2.54199C11.8643 2.22559 12.6553 2.06738 13.499 2.06738ZM19.0098 16.7803H7.98828C6.88086 16.7803 5.84375 16.9912 4.87695 17.4131C3.89258 17.835 3.04004 18.4062 2.31934 19.127C1.59863 19.8477 1.03613 20.6914 0.631836 21.6582C0.209961 22.625 -0.000976562 23.6621 -0.000976562 24.7695V27.8281H1.23828V24.7695C1.23828 23.8203 1.41406 22.9414 1.76562 22.1328C2.11719 21.3066 2.59619 20.5903 3.20264 19.9839C3.80908 19.3774 4.52539 18.8984 5.35156 18.5469C6.16016 18.1953 7.03906 18.0195 7.98828 18.0195H19.0098C19.959 18.0195 20.8379 18.1953 21.6465 18.5469C22.4727 18.8984 23.189 19.3774 23.7954 19.9839C24.4019 20.5903 24.8809 21.3066 25.2324 22.1328C25.584 22.9414 25.7598 23.8203 25.7598 24.7695V27.8281H26.999V24.7695C26.999 23.6621 26.7881 22.625 26.3662 21.6582C25.9619 20.6914 25.3994 19.8477 24.6787 19.127C23.958 18.4062 23.1055 17.835 22.1211 17.4131C21.1543 16.9912 20.1172 16.7803 19.0098 16.7803Z" fill="#444444"/>
</g>
<defs>
<clipPath id="clip0_131_1367">
<rect width="27" height="27" fill="white" transform="matrix(1 0 0 -1 -0.00195312 27.8281)"/>
</clipPath>
</defs>
</svg>
