<svg width="13" height="14" viewBox="0 0 13 14" fill="none" xmlns="http://www.w3.org/2000/svg">
<g clip-path="url(#clip0_131_1380)">
<path d="M6.52539 9.08008C7.16862 9.08008 7.71875 8.85156 8.17578 8.39453C8.63281 7.9375 8.86133 7.38737 8.86133 6.74414V2.66894C8.86133 2.02572 8.63281 1.47559 8.17578 1.01855C7.71875 0.561523 7.16862 0.333007 6.52539 0.333007C5.88216 0.333007 5.33415 0.561523 4.88135 1.01855C4.42855 1.47559 4.20215 2.02572 4.20215 2.66894V6.74414C4.20215 7.38737 4.42855 7.9375 4.88135 8.39453C5.33415 8.85156 5.88216 9.08008 6.52539 9.08008ZM5.35742 2.66894C5.35742 2.34733 5.47168 2.07226 5.7002 1.84375C5.92871 1.61523 6.20378 1.50098 6.52539 1.50098C6.84701 1.50098 7.12207 1.61523 7.35059 1.84375C7.5791 2.07226 7.69336 2.34733 7.69336 2.66894V6.74414C7.69336 7.06575 7.5791 7.34082 7.35059 7.56934C7.12207 7.79785 6.84701 7.91211 6.52539 7.91211C6.20378 7.91211 5.92871 7.79785 5.7002 7.56934C5.47168 7.34082 5.35742 7.06575 5.35742 6.74414V2.66894ZM11.1973 6.74414H10.0293C10.0293 7.22656 9.9362 7.67936 9.75 8.10254C9.5638 8.53418 9.31413 8.90658 9.00098 9.21973C8.68783 9.53288 8.31543 9.78255 7.88379 9.96875C7.46061 10.1549 7.00781 10.248 6.52539 10.248C6.04297 10.248 5.59017 10.1549 5.16699 9.96875C4.74382 9.78255 4.37354 9.53288 4.05615 9.21973C3.73877 8.90658 3.48698 8.53418 3.30078 8.10254C3.12305 7.67936 3.03418 7.22656 3.03418 6.74414H1.86621C1.86621 7.34505 1.97201 7.90788 2.18359 8.43262C2.38672 8.96582 2.67236 9.43766 3.04053 9.84814C3.40869 10.2586 3.84245 10.5951 4.3418 10.8574C4.83268 11.1283 5.36589 11.2975 5.94141 11.3652V12H3.61816V13.1553H9.44531V12H7.10938V11.3652C7.6849 11.2975 8.22233 11.1283 8.72168 10.8574C9.22103 10.5951 9.65267 10.2586 10.0166 9.84814C10.3805 9.43766 10.6683 8.96582 10.8799 8.43262C11.0915 7.90788 11.1973 7.34505 11.1973 6.74414Z" fill="#444444"/>
</g>
<defs>
<clipPath id="clip0_131_1380">
<rect width="13" height="13" fill="white" transform="matrix(1 0 0 -1 -0.000976562 13.2188)"/>
</clipPath>
</defs>
</svg>
