<svg width="19" height="51" viewBox="0 0 19 51" fill="none" xmlns="http://www.w3.org/2000/svg">
<g clip-path="url(#clip0_131_1357)">
<path d="M18.0439 32.7236L14.5459 29.2256C15.0381 28.5693 15.4248 27.8428 15.7061 27.0459C15.9873 26.249 16.1279 25.4053 16.1279 24.5146C16.1279 23.4248 15.9229 22.4053 15.5127 21.4561C15.1025 20.4951 14.54 19.6572 13.8252 18.9424C13.1104 18.2275 12.2725 17.665 11.3115 17.2549C10.3623 16.8447 9.34277 16.6396 8.25293 16.6396C7.16309 16.6396 6.14355 16.8447 5.19434 17.2549C4.2334 17.665 3.39551 18.2275 2.68066 18.9424C1.96582 19.6572 1.40332 20.4951 0.993164 21.4561C0.583008 22.4053 0.37793 23.4248 0.37793 24.5146C0.37793 25.6045 0.583008 26.624 0.993164 27.5732C1.40332 28.5342 1.96582 29.3721 2.68066 30.0869C3.39551 30.8018 4.2334 31.3643 5.19434 31.7744C6.14355 32.1846 7.16309 32.3896 8.25293 32.3896C9.14355 32.3896 9.9873 32.249 10.7842 31.9678C11.5811 31.6865 12.3076 31.2998 12.9639 30.8076L16.4619 34.3057C16.5674 34.4111 16.6816 34.4932 16.8047 34.5518C16.9277 34.6104 17.0771 34.6396 17.2529 34.6396C17.5693 34.6396 17.8359 34.5312 18.0527 34.3145C18.2695 34.0977 18.3779 33.8311 18.3779 33.5146C18.3779 33.3857 18.3574 33.2568 18.3164 33.1279C18.2754 32.999 18.1846 32.8643 18.0439 32.7236ZM2.62793 24.5146C2.62793 23.7412 2.77441 23.0088 3.06738 22.3174C3.36035 21.6377 3.76172 21.043 4.27148 20.5332C4.78125 20.0234 5.37598 19.6221 6.05566 19.3291C6.74707 19.0361 7.47949 18.8896 8.25293 18.8896C9.02637 18.8896 9.75879 19.0361 10.4502 19.3291C11.1299 19.6221 11.7246 20.0234 12.2344 20.5332C12.7441 21.043 13.1455 21.6377 13.4385 22.3174C13.7314 23.0088 13.8779 23.7412 13.8779 24.5146C13.8779 25.2881 13.7314 26.0205 13.4385 26.7119C13.1455 27.3916 12.7441 27.9863 12.2344 28.4961C11.7246 29.0059 11.1299 29.4072 10.4502 29.7002C9.75879 29.9932 9.02637 30.1396 8.25293 30.1396C7.47949 30.1396 6.74707 29.9932 6.05566 29.7002C5.37598 29.4072 4.78125 29.0059 4.27148 28.4961C3.76172 27.9863 3.36035 27.3916 3.06738 26.7119C2.77441 26.0205 2.62793 25.2881 2.62793 24.5146Z" fill="#444444"/>
</g>
<defs>
<clipPath id="clip0_131_1357">
<rect width="18" height="18" fill="white" transform="matrix(1 0 0 -1 0.37793 34.6396)"/>
</clipPath>
</defs>
</svg>
