<svg width="13" height="14" viewBox="0 0 13 14" fill="none" xmlns="http://www.w3.org/2000/svg">
<g clip-path="url(#clip0_131_1407)">
<path d="M6.08028 0.244255C5.52169 0.286573 4.98002 0.394483 4.45528 0.567986C3.93054 0.741489 3.4312 0.980584 2.95724 1.28527C2.79643 1.3953 2.65255 1.50109 2.5256 1.60265C2.39864 1.70422 2.25476 1.82694 2.09396 1.97082C1.66231 2.36014 1.29203 2.80659 0.983116 3.31017C0.674196 3.81375 0.435101 4.35754 0.265831 4.94152C0.155805 5.32238 0.0817486 5.7244 0.0436626 6.14758C0.00557669 6.57075 0.00769257 6.98547 0.0500103 7.39172C0.100792 7.87414 0.202354 8.33963 0.354698 8.7882C0.507042 9.23677 0.703819 9.66206 0.94503 10.0641C1.18624 10.4661 1.47189 10.8406 1.80196 11.1876C2.13204 11.5346 2.49597 11.8393 2.89376 12.1017C3.08842 12.2371 3.27885 12.3535 3.46505 12.4508C3.65125 12.5481 3.85014 12.6391 4.06173 12.7237C4.44259 12.8761 4.83191 12.9946 5.2297 13.0792C5.62748 13.1554 6.02739 13.1956 6.4294 13.1998C6.83142 13.2041 7.23133 13.1723 7.62911 13.1046C8.03536 13.0369 8.42468 12.9311 8.79708 12.7872C9.22872 12.618 9.63497 12.4106 10.0158 12.1652C10.3967 11.9112 10.7479 11.6277 11.0695 11.3146C11.3912 11.0014 11.6747 10.6544 11.9201 10.2736C12.1656 9.89269 12.3729 9.49067 12.5422 9.0675C12.6268 8.83898 12.6988 8.61047 12.758 8.38195C12.8173 8.15344 12.868 7.90799 12.9104 7.64562C12.9527 7.41711 12.976 7.13781 12.9802 6.80773C12.9844 6.47765 12.9696 6.18143 12.9358 5.91906C12.8596 5.31815 12.703 4.74051 12.466 4.18615C12.229 3.63179 11.9286 3.12609 11.5647 2.66906C11.3023 2.34745 11.0145 2.05122 10.7014 1.78039C10.3882 1.51802 10.056 1.28739 9.7048 1.08849C9.35356 0.8896 8.98751 0.722446 8.60665 0.587029C8.21733 0.451612 7.81954 0.358513 7.41329 0.307732C7.19324 0.273878 6.97107 0.252719 6.74679 0.244255C6.5225 0.235792 6.30034 0.235792 6.08028 0.244255ZM6.91817 1.42492C7.25672 1.45031 7.58891 1.50955 7.91476 1.60265C8.2406 1.69575 8.5601 1.81847 8.87325 1.97082C9.28797 2.18241 9.66671 2.44054 10.0095 2.74523C10.3523 3.04992 10.6591 3.40116 10.9299 3.79894C11.1161 4.07824 11.2769 4.38081 11.4123 4.70666C11.5477 5.0325 11.6451 5.3647 11.7043 5.70324C11.7466 5.88944 11.772 6.04813 11.7805 6.17931C11.7889 6.3105 11.7932 6.49035 11.7932 6.71886C11.7932 6.94738 11.7889 7.123 11.7805 7.24572C11.772 7.36844 11.7509 7.5229 11.717 7.7091C11.6408 8.12381 11.5096 8.53218 11.3234 8.9342C11.1373 9.33622 10.913 9.70226 10.6506 10.0323L10.549 10.1466L10.3078 9.90539C10.1386 9.73612 9.97563 9.59224 9.81905 9.47375C9.66248 9.35526 9.49109 9.24523 9.30489 9.14367C9.23718 9.10135 9.1462 9.05269 9.03194 8.99767C8.91769 8.94266 8.83517 8.90669 8.78439 8.88976L8.7336 8.87707L8.82247 8.8009C8.88172 8.75011 8.95366 8.68029 9.03829 8.59142C9.12293 8.50256 9.19487 8.42004 9.25411 8.34386C9.50802 8.02225 9.70268 7.67525 9.8381 7.30285C9.96505 6.92199 10.0306 6.53901 10.0349 6.15392C10.0391 5.76883 9.97774 5.38586 9.85079 5.005C9.72384 4.62414 9.53341 4.2729 9.2795 3.95129C9.00021 3.59582 8.66166 3.30171 8.26388 3.06896C7.86609 2.83622 7.43868 2.69022 6.98165 2.63097C6.84623 2.60558 6.67908 2.595 6.48019 2.59924C6.28129 2.60347 6.11414 2.61405 5.97872 2.63097C5.78406 2.66483 5.59575 2.71138 5.41378 2.77062C5.23181 2.82987 5.05196 2.90604 4.87423 2.99914C4.36642 3.26151 3.94747 3.62332 3.61739 4.08459C3.28732 4.54585 3.07996 5.06424 2.99532 5.63976C2.9784 5.75825 2.96993 5.92118 2.96993 6.12853C2.96993 6.33589 2.9784 6.49881 2.99532 6.6173C3.02918 6.81196 3.07361 6.99816 3.12862 7.1759C3.18364 7.35363 3.25346 7.52713 3.3381 7.6964C3.43966 7.89953 3.55392 8.08784 3.68087 8.26135C3.80782 8.43485 3.94747 8.58931 4.09982 8.72472C4.14213 8.75858 4.17599 8.79032 4.20138 8.81994C4.22677 8.84956 4.23946 8.86437 4.23946 8.86437C4.23946 8.86437 4.22465 8.87284 4.19503 8.88976C4.16541 8.90669 4.12944 8.92362 4.08712 8.94054C3.81629 9.05903 3.57084 9.19445 3.35079 9.34679C3.13074 9.49914 2.91069 9.68534 2.69064 9.90539L2.44942 10.1466L2.34786 10.0196C2.04317 9.63879 1.79773 9.22407 1.61153 8.77551C1.42534 8.32694 1.29838 7.85298 1.23067 7.35363C1.21375 7.20975 1.20528 6.99605 1.20528 6.71252C1.20528 6.42899 1.21375 6.21952 1.23067 6.0841C1.26453 5.82173 1.31108 5.58052 1.37032 5.36047C1.42957 5.14041 1.50574 4.92036 1.59884 4.70031C1.75118 4.31945 1.94584 3.96398 2.18282 3.6339C2.4198 3.30383 2.68852 3.00549 2.98898 2.73888C3.28943 2.47228 3.61739 2.24165 3.97286 2.04699C4.33679 1.85233 4.71342 1.70422 5.10274 1.60265C5.25509 1.56034 5.42859 1.52225 5.62325 1.4884C5.81791 1.45454 5.98718 1.43338 6.13107 1.42492C6.23263 1.41646 6.36593 1.41222 6.53097 1.41222C6.69601 1.41222 6.82508 1.41646 6.91817 1.42492ZM6.81661 3.79894C7.07052 3.8328 7.30961 3.90474 7.5339 4.01476C7.75818 4.12479 7.96342 4.26867 8.14962 4.4464C8.39506 4.68338 8.57703 4.95422 8.69552 5.2589C8.81401 5.56359 8.86479 5.88521 8.84786 6.22375C8.8394 6.51997 8.77804 6.79927 8.66378 7.06164C8.54952 7.32401 8.3866 7.56522 8.17501 7.78527C7.97189 7.9884 7.7476 8.1492 7.50216 8.26769C7.25672 8.38618 6.98588 8.45389 6.68966 8.47082C6.06336 8.53006 5.50688 8.36291 5.02023 7.96935C4.53357 7.5758 4.24793 7.06587 4.16329 6.43957C4.11251 6.06717 4.14636 5.70959 4.26485 5.36681C4.38334 5.02404 4.57801 4.71724 4.84884 4.4464C5.11121 4.1925 5.41378 4.00842 5.75655 3.89416C6.09933 3.7799 6.45268 3.74816 6.81661 3.79894ZM6.95626 9.67687C7.50639 9.71919 7.99093 9.83133 8.40987 10.0133C8.82882 10.1953 9.1991 10.4513 9.52071 10.7814C9.58842 10.8575 9.63074 10.9062 9.64767 10.9274C9.66459 10.9485 9.66883 10.9633 9.66036 10.9718C9.64343 10.9972 9.5461 11.0649 9.36837 11.1749C9.19064 11.2849 9.04252 11.3696 8.92403 11.4288C8.51778 11.6404 8.10307 11.7949 7.67989 11.8922C7.25672 11.9895 6.82084 12.034 6.37228 12.0255C6.02527 12.0086 5.69731 11.9684 5.38839 11.9049C5.07947 11.8414 4.76843 11.7462 4.45528 11.6193C4.30294 11.5515 4.11886 11.4584 3.90304 11.34C3.68722 11.2215 3.51583 11.1157 3.38888 11.0226L3.31271 10.9591L3.42696 10.8448C3.72319 10.5063 4.09135 10.2397 4.53146 10.045C4.97156 9.85038 5.46245 9.73189 6.00411 9.68957C6.1226 9.67264 6.28129 9.66418 6.48019 9.66418C6.67908 9.66418 6.83777 9.66841 6.95626 9.67687Z" fill="#444444"/>
</g>
<defs>
<clipPath id="clip0_131_1407">
<rect width="13" height="13" fill="white" transform="matrix(1 0 0 -1 0 13.2188)"/>
</clipPath>
</defs>
</svg>
