<svg width="27" height="28" viewBox="0 0 27 28" fill="none" xmlns="http://www.w3.org/2000/svg">
<g clip-path="url(#clip0_3_1932)">
<path d="M8.88574 20.6943C8.00684 20.6943 7.25098 21.0063 6.61816 21.6304C5.98535 22.2544 5.66895 23.0146 5.66895 23.9111C5.66895 24.79 5.98535 25.5459 6.61816 26.1787C7.25098 26.8115 8.00684 27.1279 8.88574 27.1279C9.78223 27.1279 10.5425 26.8115 11.1665 26.1787C11.7905 25.5459 12.1025 24.79 12.1025 23.9111C12.1025 23.0146 11.7905 22.2544 11.1665 21.6304C10.5425 21.0063 9.78223 20.6943 8.88574 20.6943ZM8.88574 25.9414C8.32324 25.9414 7.84424 25.7437 7.44873 25.3481C7.05322 24.9526 6.85547 24.4736 6.85547 23.9111C6.85547 23.3486 7.05322 22.8652 7.44873 22.4609C7.84424 22.0566 8.32324 21.8545 8.88574 21.8545C9.44824 21.8545 9.92725 22.0566 10.3228 22.4609C10.7183 22.8652 10.916 23.3486 10.916 23.9111C10.916 24.4736 10.7183 24.9526 10.3228 25.3481C9.92725 25.7437 9.44824 25.9414 8.88574 25.9414ZM26.4199 7.19434H5.53711L5.11523 4.79492C4.99219 4.07422 4.66699 3.4502 4.13965 2.92285C3.6123 2.39551 2.97949 2.07031 2.24121 1.94727L0.685547 1.65723C0.527344 1.63965 0.382324 1.6748 0.250488 1.7627C0.118652 1.85059 0.0351562 1.97363 0 2.13184C-0.0175781 2.29004 0.0175781 2.43945 0.105469 2.58008C0.193359 2.7207 0.325195 2.7998 0.500977 2.81738L2.03027 3.10742C2.52246 3.19531 2.94434 3.41504 3.2959 3.7666C3.64746 4.11816 3.86719 4.53125 3.95508 5.00586L6.03809 16.8184C6.16113 17.5215 6.49951 18.106 7.05322 18.5718C7.60693 19.0376 8.24414 19.2705 8.96484 19.2705H21.3574C22.0078 19.2705 22.5967 19.0771 23.124 18.6904C23.6514 18.3037 24.0117 17.7939 24.2051 17.1611L26.9736 7.95898C27.0088 7.87109 27.0176 7.77881 27 7.68213C26.9824 7.58545 26.9473 7.50195 26.8945 7.43164C26.8418 7.36133 26.7715 7.3042 26.6836 7.26025C26.5957 7.21631 26.5078 7.19434 26.4199 7.19434ZM23.0713 16.8184C22.9658 17.1875 22.7549 17.4907 22.4385 17.728C22.1221 17.9653 21.7705 18.084 21.3838 18.084H8.96484C8.52539 18.084 8.14307 17.9434 7.81787 17.6621C7.49268 17.3809 7.29492 17.0293 7.22461 16.6074L5.74805 8.35449H25.6289L23.0713 16.8184ZM21.3047 20.6943C20.4082 20.6943 19.6479 21.0063 19.0239 21.6304C18.3999 22.2544 18.0879 23.0146 18.0879 23.9111C18.0879 24.79 18.3999 25.5459 19.0239 26.1787C19.6479 26.8115 20.4082 27.1279 21.3047 27.1279C22.1836 27.1279 22.9395 26.8115 23.5723 26.1787C24.2051 25.5459 24.5215 24.79 24.5215 23.9111C24.5215 23.0146 24.2051 22.2544 23.5723 21.6304C22.9395 21.0063 22.1836 20.6943 21.3047 20.6943ZM21.3047 25.9414C20.7422 25.9414 20.2632 25.7437 19.8677 25.3481C19.4722 24.9526 19.2744 24.4736 19.2744 23.9111C19.2744 23.3486 19.4722 22.8652 19.8677 22.4609C20.2632 22.0566 20.7422 21.8545 21.3047 21.8545C21.8672 21.8545 22.3462 22.0566 22.7417 22.4609C23.1372 22.8652 23.335 23.3486 23.335 23.9111C23.335 24.4736 23.1372 24.9526 22.7417 25.3481C22.3462 25.7437 21.8672 25.9414 21.3047 25.9414Z" fill="#444444"/>
</g>
<defs>
<clipPath id="clip0_3_1932">
<rect width="27" height="27" fill="white" transform="matrix(1 0 0 -1 0 27.8398)"/>
</clipPath>
</defs>
</svg>
