<svg width="27" height="28" viewBox="0 0 27 28" fill="none" xmlns="http://www.w3.org/2000/svg">
<g clip-path="url(#clip0_131_1370)">
<path d="M8.88623 20.6826C8.00732 20.6826 7.25146 20.9946 6.61865 21.6187C5.98584 22.2427 5.66943 23.0029 5.66943 23.8994C5.66943 24.7783 5.98584 25.5342 6.61865 26.167C7.25146 26.7998 8.00732 27.1162 8.88623 27.1162C9.78271 27.1162 10.543 26.7998 11.167 26.167C11.791 25.5342 12.103 24.7783 12.103 23.8994C12.103 23.0029 11.791 22.2427 11.167 21.6187C10.543 20.9946 9.78271 20.6826 8.88623 20.6826ZM8.88623 25.9297C8.32373 25.9297 7.84473 25.7319 7.44922 25.3364C7.05371 24.9409 6.85596 24.4619 6.85596 23.8994C6.85596 23.3369 7.05371 22.8535 7.44922 22.4492C7.84473 22.0449 8.32373 21.8428 8.88623 21.8428C9.44873 21.8428 9.92773 22.0449 10.3232 22.4492C10.7187 22.8535 10.9165 23.3369 10.9165 23.8994C10.9165 24.4619 10.7187 24.9409 10.3232 25.3364C9.92773 25.7319 9.44873 25.9297 8.88623 25.9297ZM26.4204 7.18262H5.5376L5.11572 4.7832C4.99268 4.0625 4.66748 3.43848 4.14014 2.91113C3.61279 2.38379 2.97998 2.0586 2.2417 1.93555L0.686035 1.64551C0.527832 1.62793 0.382812 1.66309 0.250977 1.75098C0.119141 1.83887 0.0356445 1.96192 0.000488281 2.12012C-0.0170898 2.27832 0.0180664 2.42774 0.105957 2.56836C0.193848 2.70899 0.325684 2.78809 0.501465 2.80567L2.03076 3.0957C2.52295 3.1836 2.94482 3.40332 3.29639 3.75488C3.64795 4.10645 3.86768 4.51953 3.95557 4.99414L6.03857 16.8066C6.16162 17.5098 6.5 18.0942 7.05371 18.5601C7.60742 19.0259 8.24463 19.2588 8.96533 19.2588H21.3579C22.0083 19.2588 22.5972 19.0654 23.1245 18.6787C23.6519 18.292 24.0122 17.7822 24.2056 17.1494L26.9741 7.94727C27.0093 7.85938 27.0181 7.76709 27.0005 7.67041C26.9829 7.57373 26.9478 7.49024 26.895 7.41992C26.8423 7.34961 26.772 7.29248 26.6841 7.24854C26.5962 7.20459 26.5083 7.18262 26.4204 7.18262ZM23.0718 16.8066C22.9663 17.1758 22.7554 17.479 22.439 17.7163C22.1226 17.9536 21.771 18.0723 21.3843 18.0723H8.96533C8.52588 18.0723 8.14355 17.9316 7.81836 17.6504C7.49316 17.3691 7.29541 17.0176 7.2251 16.5957L5.74853 8.34277H25.6294L23.0718 16.8066ZM21.3052 20.6826C20.4087 20.6826 19.6484 20.9946 19.0244 21.6187C18.4004 22.2427 18.0884 23.0029 18.0884 23.8994C18.0884 24.7783 18.4004 25.5342 19.0244 26.167C19.6484 26.7998 20.4087 27.1162 21.3052 27.1162C22.1841 27.1162 22.9399 26.7998 23.5728 26.167C24.2056 25.5342 24.522 24.7783 24.522 23.8994C24.522 23.0029 24.2056 22.2427 23.5728 21.6187C22.9399 20.9946 22.1841 20.6826 21.3052 20.6826ZM21.3052 25.9297C20.7427 25.9297 20.2637 25.7319 19.8682 25.3364C19.4727 24.9409 19.2749 24.4619 19.2749 23.8994C19.2749 23.3369 19.4727 22.8535 19.8682 22.4492C20.2637 22.0449 20.7427 21.8428 21.3052 21.8428C21.8677 21.8428 22.3467 22.0449 22.7422 22.4492C23.1377 22.8535 23.3354 23.3369 23.3354 23.8994C23.3354 24.4619 23.1377 24.9409 22.7422 25.3364C22.3467 25.7319 21.8677 25.9297 21.3052 25.9297Z" fill="#444444"/>
</g>
<defs>
<clipPath id="clip0_131_1370">
<rect width="27" height="27" fill="white" transform="matrix(1 0 0 -1 -0.000976562 27.8281)"/>
</clipPath>
</defs>
</svg>
