<svg width="12" height="11" viewBox="0 0 12 11" fill="none" xmlns="http://www.w3.org/2000/svg">
<g clip-path="url(#clip0_9_377)">
<path d="M6.05713 5.48999L11.2563 0.290771C11.2922 0.254964 11.3101 0.213786 11.3101 0.167236C11.3101 0.120687 11.2922 0.0795088 11.2563 0.0437012C11.2205 0.00789356 11.1794 -0.0100098 11.1328 -0.0100098C11.0863 -0.0100098 11.0451 0.00789356 11.0093 0.0437012L5.81006 5.24292L0.61084 0.0437012C0.575033 0.00789356 0.533854 -0.0100098 0.487305 -0.0100098C0.440755 -0.0100098 0.399577 0.00789356 0.36377 0.0437012C0.327962 0.0795088 0.310059 0.120687 0.310059 0.167236C0.310059 0.213786 0.327962 0.254964 0.36377 0.290771L5.56299 5.48999L0.36377 10.6892C0.327962 10.7179 0.310059 10.7572 0.310059 10.8074C0.310059 10.8575 0.327962 10.9005 0.36377 10.9363C0.392415 10.9721 0.431803 10.99 0.481934 10.99C0.532064 10.99 0.575033 10.9721 0.61084 10.9363L5.81006 5.73706L11.0093 10.9363C11.0451 10.9721 11.0863 10.9882 11.1328 10.9846C11.1794 10.981 11.2205 10.9649 11.2563 10.9363C11.2922 10.9005 11.3101 10.8575 11.3101 10.8074C11.3101 10.7572 11.2922 10.7179 11.2563 10.6892L6.05713 5.48999Z" fill="#333333"/>
</g>
<defs>
<clipPath id="clip0_9_377">
<rect width="11" height="11" fill="white" transform="matrix(1 0 0 -1 0.310059 10.99)"/>
</clipPath>
</defs>
</svg>
